<svg viewBox="0 0 100 100" xmlns="http://www.w3.org/2000/svg">
  <defs>
    <radialGradient id="or-g" cx="35%" cy="30%" r="66%">
      <stop offset="0%" stop-color="#ffe0b2" />
      <stop offset="22%" stop-color="#ff9800" />
      <stop offset="65%" stop-color="#e65100" />
      <stop offset="100%" stop-color="#bf360c" />
    </radialGradient>
    <radialGradient id="or-rim" cx="75%" cy="80%" r="52%">
      <stop offset="0%" stop-color="#ffd700" stop-opacity="0.48" />
      <stop offset="100%" stop-color="#ffd700" stop-opacity="0" />
    </radialGradient>
    <filter id="or-sh" x="-20%" y="-20%" width="140%" height="140%">
      <feDropShadow dx="0" dy="4" stdDeviation="5.5" flood-color="#000" flood-opacity="0.58" />
    </filter>
    <radialGradient id="or-leaf" cx="38%" cy="32%" r="64%">
      <stop offset="0%" stop-color="#c5e1a5" />
      <stop offset="100%" stop-color="#1b5e20" />
    </radialGradient>
  </defs>
  <ellipse cx="50" cy="93" rx="31" ry="5.5" fill="rgba(0,0,0,0.32)" />
  <circle cx="50" cy="55" r="37" fill="url(#or-g)" stroke="#bf360c" stroke-width="3.2" filter="url(#or-sh)" />
  <circle cx="50" cy="55" r="37" fill="url(#or-rim)" />
  <line x1="87" y1="55" x2="13" y2="55" stroke="rgba(0,0,0,0.07)" stroke-width="0.8" />
  <line x1="82.971" y1="73.5" x2="17.029" y2="36.5" stroke="rgba(0,0,0,0.07)" stroke-width="0.8" />
  <line x1="72" y1="87.942" x2="28" y2="22.058" stroke="rgba(0,0,0,0.07)" stroke-width="0.8" />
  <line x1="55" y1="92" x2="45" y2="18" stroke="rgba(0,0,0,0.07)" stroke-width="0.8" />
  <line x1="37.5" y1="87.971" x2="62.5" y2="22.029" stroke="rgba(0,0,0,0.07)" stroke-width="0.8" />
  <line x1="23.058" y1="77" x2="76.942" y2="33" stroke="rgba(0,0,0,0.07)" stroke-width="0.8" />
  <circle cx="50" cy="18" r="4.5" fill="#6d4c41" stroke="#4e342e" stroke-width="1.8" />
  <path d="M48 17 C43 8, 33 9, 33 18 C33 25, 44 24, 48 17 Z" fill="url(#or-leaf)" stroke="#1a3a0a" stroke-width="1.8" />
  <path d="M52 15 C57 6, 67 8, 67 17 C67 24, 56 23, 52 15 Z" fill="#388e3c" stroke="#1a3a0a" stroke-width="1.8" />
  <ellipse cx="34" cy="41" rx="14" ry="9.5" fill="rgba(255,255,255,0.5)" transform="rotate(-30,34,41)" />
  <ellipse cx="29" cy="34" rx="6" ry="4" fill="rgba(255,255,255,0.78)" transform="rotate(-30,29,34)" />
</svg>