<svg viewBox="0 0 100 100" xmlns="http://www.w3.org/2000/svg">
  <defs>
    <radialGradient id="ra-g" cx="32%" cy="27%" r="68%">
      <stop offset="0%" stop-color="#ff80ab" />
      <stop offset="28%" stop-color="#e91e63" />
      <stop offset="72%" stop-color="#880e4f" />
      <stop offset="100%" stop-color="#40001f" />
    </radialGradient>
    <radialGradient id="ra-rim" cx="76%" cy="82%" r="46%">
      <stop offset="0%" stop-color="#ffd700" stop-opacity="0.42" />
      <stop offset="100%" stop-color="#ffd700" stop-opacity="0" />
    </radialGradient>
    <filter id="ra-sh" x="-25%" y="-25%" width="150%" height="150%">
      <feDropShadow dx="0" dy="3" stdDeviation="4" flood-color="#000" flood-opacity="0.55" />
    </filter>
    <radialGradient id="ra-leaf" cx="38%" cy="32%" r="64%">
      <stop offset="0%" stop-color="#a5d6a7" />
      <stop offset="100%" stop-color="#1b5e20" />
    </radialGradient>
  </defs>
  <ellipse cx="50" cy="93" rx="24" ry="5" fill="rgba(0,0,0,0.3)" />
  <circle cx="50" cy="30" r="9" fill="url(#ra-g)" stroke="#40001f" stroke-width="1.6" filter="url(#ra-sh)" />
  <circle cx="40" cy="40" r="9.5" fill="url(#ra-g)" stroke="#40001f" stroke-width="1.6" filter="url(#ra-sh)" />
  <circle cx="60" cy="40" r="9.5" fill="url(#ra-g)" stroke="#40001f" stroke-width="1.6" filter="url(#ra-sh)" />
  <circle cx="31" cy="51" r="9" fill="url(#ra-g)" stroke="#40001f" stroke-width="1.6" filter="url(#ra-sh)" />
  <circle cx="50" cy="51" r="9" fill="url(#ra-g)" stroke="#40001f" stroke-width="1.6" filter="url(#ra-sh)" />
  <circle cx="69" cy="51" r="9" fill="url(#ra-g)" stroke="#40001f" stroke-width="1.6" filter="url(#ra-sh)" />
  <circle cx="38" cy="61" r="8.5" fill="url(#ra-g)" stroke="#40001f" stroke-width="1.6" filter="url(#ra-sh)" />
  <circle cx="56" cy="61" r="8.5" fill="url(#ra-g)" stroke="#40001f" stroke-width="1.6" filter="url(#ra-sh)" />
  <circle cx="44" cy="70" r="8" fill="url(#ra-g)" stroke="#40001f" stroke-width="1.6" filter="url(#ra-sh)" />
  <circle cx="58" cy="69" r="7.5" fill="url(#ra-g)" stroke="#40001f" stroke-width="1.6" filter="url(#ra-sh)" />
  <circle cx="50" cy="30" r="9" fill="url(#ra-rim)" />
  <circle cx="40" cy="40" r="9.5" fill="url(#ra-rim)" />
  <circle cx="60" cy="40" r="9.5" fill="url(#ra-rim)" />
  <circle cx="31" cy="51" r="9" fill="url(#ra-rim)" />
  <circle cx="50" cy="51" r="9" fill="url(#ra-rim)" />
  <circle cx="69" cy="51" r="9" fill="url(#ra-rim)" />
  <circle cx="38" cy="61" r="8.5" fill="url(#ra-rim)" />
  <circle cx="56" cy="61" r="8.5" fill="url(#ra-rim)" />
  <circle cx="44" cy="70" r="8" fill="url(#ra-rim)" />
  <circle cx="58" cy="69" r="7.5" fill="url(#ra-rim)" />
  <ellipse cx="47.56" cy="27.12" rx="3.42" ry="2.38" fill="rgba(255,255,255,0.55)" transform="rotate(-30,47.56,27.12)" />
  <ellipse cx="37.04" cy="37.04" rx="3.61" ry="2.52" fill="rgba(255,255,255,0.55)" transform="rotate(-30,37.04,37.04)" />
  <ellipse cx="57.04" cy="37.04" rx="3.61" ry="2.52" fill="rgba(255,255,255,0.55)" transform="rotate(-30,57.04,37.04)" />
  <ellipse cx="28.28" cy="48.19" rx="3.42" ry="2.38" fill="rgba(255,255,255,0.55)" transform="rotate(-30,28.28,48.19)" />
  <ellipse cx="47.04" cy="48.19" rx="3.42" ry="2.38" fill="rgba(255,255,255,0.55)" transform="rotate(-30,47.04,48.19)" />
  <ellipse cx="66.28" cy="48.19" rx="3.42" ry="2.38" fill="rgba(255,255,255,0.55)" transform="rotate(-30,66.28,48.19)" />
  <ellipse cx="36.28" cy="60.54" rx="3.23" ry="2.24" fill="rgba(255,255,255,0.55)" transform="rotate(-30,36.28,60.54)" />
  <ellipse cx="54.68" cy="60.54" rx="3.23" ry="2.24" fill="rgba(255,255,255,0.55)" transform="rotate(-30,54.68,60.54)" />
  <ellipse cx="43.52" cy="68.04" rx="3.04" ry="2.1" fill="rgba(255,255,255,0.55)" transform="rotate(-30,43.52,68.04)" />
  <ellipse cx="57.76" cy="67.27" rx="2.85" ry="1.96" fill="rgba(255,255,255,0.55)" transform="rotate(-30,57.76,67.27)" />
  <ellipse cx="50" cy="53" rx="26" ry="28" fill="none" stroke="#40001f" stroke-width="2.5" />
  <path d="M50 21 C50 14, 54 9, 56 7" stroke="#6d4c41" stroke-width="3" stroke-linecap="round" fill="none" />
  <path d="M47 18 C42 9, 31 9, 32 19 C33 26, 44 24, 47 18 Z" fill="url(#ra-leaf)" stroke="#1a3a0a" stroke-width="1.8" />
  <path d="M53 16 C58 7, 69 8, 68 18 C67 25, 56 23, 53 16 Z" fill="#388e3c" stroke="#1a3a0a" stroke-width="1.8" />
</svg>