<svg viewBox="0 0 100 100" xmlns="http://www.w3.org/2000/svg">
  <defs>
    <linearGradient id="wm-green" x1="50%" y1="0%" x2="50%" y2="100%">
      <stop offset="0%" stop-color="#66bb6a" />
      <stop offset="55%" stop-color="#2e7d32" />
      <stop offset="100%" stop-color="#1a3a0a" />
    </linearGradient>
    <linearGradient id="wm-red" x1="50%" y1="0%" x2="50%" y2="100%">
      <stop offset="0%" stop-color="#ff5252" />
      <stop offset="55%" stop-color="#e53935" />
      <stop offset="100%" stop-color="#b71c1c" />
    </linearGradient>
    <radialGradient id="wm-rim" cx="70%" cy="30%" r="60%">
      <stop offset="0%" stop-color="#ffd700" stop-opacity="0.42" />
      <stop offset="100%" stop-color="#ffd700" stop-opacity="0" />
    </radialGradient>
    <filter id="wm-sh" x="-20%" y="-20%" width="140%" height="140%">
      <feDropShadow dx="0" dy="4" stdDeviation="5" flood-color="#000" flood-opacity="0.55" />
    </filter>
  </defs>
  <ellipse cx="50" cy="93" rx="34" ry="5" fill="rgba(0,0,0,0.3)" />
  <path d="M10 82 Q50 6 90 82 Z" fill="url(#wm-green)" stroke="#1a3a0a" stroke-width="3.2" filter="url(#wm-sh)" />
  <path d="M16 82 Q50 17 84 82 Z" fill="#f5f5f5" />
  <path d="M22 82 Q50 28 78 82 Z" fill="url(#wm-red)" />
  <path d="M10 82 Q50 6 90 82 Z" fill="url(#wm-rim)" />
  <path d="M10 82 Q50 6 90 82 Z" fill="none" stroke="#1a3a0a" stroke-width="3.2" />
  <line x1="10" y1="82" x2="90" y2="82" stroke="#1a3a0a" stroke-width="3.2" />
  <ellipse cx="37" cy="72" rx="2.8" ry="5" fill="#212121" transform="rotate(-20,37,72)" />
  <ellipse cx="50" cy="64" rx="2.8" ry="5" fill="#212121" transform="rotate(5,50,64)" />
  <ellipse cx="63" cy="72" rx="2.8" ry="5" fill="#212121" transform="rotate(22,63,72)" />
  <ellipse cx="43" cy="78" rx="2.8" ry="5" fill="#212121" transform="rotate(-8,43,78)" />
  <ellipse cx="57" cy="78" rx="2.8" ry="5" fill="#212121" transform="rotate(10,57,78)" />
  <ellipse cx="38" cy="72" rx="9" ry="4" fill="rgba(255,255,255,0.38)" transform="rotate(-25,38,72)" />
</svg>