<svg width="100" height="100" viewBox="0 0 100 100" xmlns="http://www.w3.org/2000/svg">
  <defs>
    <radialGradient id="rc-fill" cx="35%" cy="30%" r="70%">
      <stop offset="0%" stop-color="#FFCCD2" />
      <stop offset="28%" stop-color="#FF3355" />
      <stop offset="75%" stop-color="#B00020" />
      <stop offset="100%" stop-color="#5C0000" />
    </radialGradient>
  </defs>
  <ellipse cx="50" cy="93" rx="28" ry="5" fill="rgba(0,0,0,0.3)" />
  <path d="M47 17 C46 9, 50 5, 52 4" stroke="#2E7D32" stroke-width="3.2" stroke-linecap="round" fill="none" />
  <path d="M47 17 C44 24, 34 34, 30 54" stroke="#388E3C" stroke-width="3.2" stroke-linecap="round" fill="none" />
  <path d="M47 17 C50 24, 62 32, 68 54" stroke="#388E3C" stroke-width="3.2" stroke-linecap="round" fill="none" />
  <path d="M44 14 C38 5, 27 8, 28 18 C29 26, 41 24, 44 14 Z" fill="#1B5E20" stroke="#1A3A0A" stroke-width="1.8" />
  <circle cx="30" cy="69" r="19" fill="url(#rc-fill)" stroke="#5C0000" stroke-width="3" />
  <circle cx="70" cy="69" r="19" fill="url(#rc-fill)" stroke="#5C0000" stroke-width="3" />
  <ellipse cx="22" cy="61" rx="7.5" ry="5.5" fill="rgba(255,255,255,0.52)" transform="rotate(-30 22 61)" />
  <ellipse cx="62" cy="61" rx="7.5" ry="5.5" fill="rgba(255,255,255,0.52)" transform="rotate(-30 62 61)" />
</svg>